<svg xmlns="http://www.w3.org/2000/svg" xmlns:xlink="http://www.w3.org/1999/xlink" version="1.1" id="Capa_1" x="0px" y="0px" viewBox="0 0 1348 357" style="enable-background:new 0 0 1348 357;" xml:space="preserve">
<g>
	<path class="st2" d="M112.07,72.32C53.43,74.06,7.3,123.02,9.05,181.66s50.7,104.77,109.34,103.02s104.77-50.7,103.02-109.34   C219.66,116.7,170.71,70.58,112.07,72.32z M26.97,168.73c-1.44-48.47,36.63-88.94,85.08-90.49l-0.56,25.42   c-6.52,3.6-12.85,9.16-16.97,17.76c-14.11,6.86-28.3,22.28-22.44,57.06c2.37,14.08,15.52,36.6,36.69,48.14l-0.6,27.16   C63.87,250.46,28.32,214.13,26.97,168.73z M91.15,159.62c1.58,9.41,7.99,22.57,18.36,33.72l-0.46,20.93   c-10.94-5.98-22.15-16.8-27.24-36.39c-6.04-23.24-0.02-37.65,9.3-46.27C89.49,139.18,89.26,148.37,91.15,159.62z M101.79,124.52   c3.17-1.48,6.35-2.52,9.32-3.23l-1.27,57.72c-3.72-5.37-6.86-11.92-8.95-19.98C97.02,144.18,98.09,132.96,101.79,124.52z    M111.21,116.46c-1.58,0.22-3.37,0.53-5.3,0.98c1.63-2.16,3.46-4.05,5.4-5.71L111.21,116.46z M127.52,253.11l-0.88-20.1   c3.21,0.59,6.54,0.92,9.98,0.95l-0.37-12.3c0,0-4.13,0.05-10.17-1.19l-0.62-14.08c8.69,5.22,18.83,8.62,30.22,8.71l-0.37-12.3   c0,0-15.53,0.19-30.42-9.3l-3.87-87.91c5.81-2.69,11.68-3.95,16.14-4.29l-0.13-4.22c0,0-7.36-0.14-16.27,2.66l-0.94-21.38   c45.1,2.5,81.55,39.16,82.92,85.15C204.09,208.63,171.17,246.81,127.52,253.11z"/>
	<g>
		<path class="st2" d="M354.84,162.52c-1.98-3.03-4.95-5.57-8.91-7.62c-3.96-2.05-8.19-3.07-12.67-3.07    c-4.88,0-9.21,0.92-12.97,2.77c-3.76,1.85-6.96,4.33-9.6,7.42c-2.64,3.1-4.65,6.7-6.04,10.79c-1.39,4.09-2.08,8.38-2.08,12.87    c0,4.49,0.69,8.78,2.08,12.87c1.39,4.09,3.4,7.69,6.04,10.79c2.64,3.1,5.87,5.58,9.7,7.42c3.83,1.85,8.18,2.77,13.07,2.77    c4.75,0,9.07-0.92,12.97-2.77c3.89-1.85,7.09-4.36,9.6-7.52l12.47,11.29c-3.96,4.62-8.91,8.22-14.85,10.79    c-5.94,2.57-12.67,3.86-20.19,3.86c-7.26,0-13.96-1.19-20.1-3.56c-6.14-2.38-11.45-5.71-15.94-10    c-4.49-4.29-8.02-9.47-10.59-15.54c-2.57-6.07-3.86-12.87-3.86-20.39c0-7.39,1.25-14.12,3.76-20.19c2.51-6.07,6-11.29,10.49-15.64    c4.49-4.36,9.8-7.72,15.94-10.1c6.14-2.38,12.77-3.56,19.9-3.56c6.6,0,13.17,1.32,19.7,3.96c6.53,2.64,11.71,6.47,15.54,11.48    L354.84,162.52z"/>
		<path class="st2" d="M386.71,149.26c-0.13-3.96-0.33-7.46-0.59-10.49h17.62c0.26,2.38,0.46,5.12,0.59,8.22    c0.13,3.1,0.2,5.64,0.2,7.62h0.59c2.64-5.54,6.5-10,11.58-13.36c5.08-3.37,10.79-5.05,17.13-5.05c2.9,0,5.35,0.27,7.33,0.79    l-0.79,17.22c-2.64-0.66-5.48-0.99-8.51-0.99c-4.49,0-8.38,0.83-11.68,2.47c-3.3,1.65-6.04,3.86-8.22,6.63s-3.8,5.97-4.85,9.6    c-1.06,3.63-1.58,7.42-1.58,11.38v49.3h-18.61v-73.65C386.91,156.45,386.84,153.22,386.71,149.26z"/>
		<path class="st2" d="M550.05,185.49c0,7.26-1.29,13.93-3.86,20c-2.57,6.07-6.14,11.32-10.69,15.74    c-4.55,4.42-9.93,7.86-16.14,10.3c-6.21,2.44-12.87,3.66-20,3.66c-7.13,0-13.79-1.22-20-3.66c-6.21-2.44-11.55-5.87-16.04-10.3    c-4.49-4.42-8.02-9.67-10.59-15.74c-2.57-6.07-3.86-12.74-3.86-20c0-7.26,1.29-13.89,3.86-19.9c2.57-6,6.1-11.19,10.59-15.54    c4.49-4.36,9.83-7.75,16.04-10.2c6.2-2.44,12.87-3.66,20-3.66c7.13,0,13.79,1.22,20,3.66c6.2,2.44,11.58,5.84,16.14,10.2    c4.55,4.36,8.12,9.54,10.69,15.54C548.76,171.6,550.05,178.23,550.05,185.49z M530.65,185.59c0-4.47-0.7-8.75-2.08-12.83    c-1.39-4.08-3.41-7.66-6.06-10.76c-2.65-3.09-5.93-5.56-9.83-7.4c-3.91-1.84-8.38-2.77-13.41-2.77c-5.03,0-9.5,0.92-13.41,2.77    c-3.91,1.84-7.18,4.31-9.83,7.4c-2.65,3.09-4.67,6.68-6.06,10.76c-1.39,4.08-2.09,8.36-2.09,12.83c0,4.48,0.69,8.75,2.09,12.83    c1.39,4.08,3.41,7.7,6.06,10.86c2.65,3.16,5.92,5.66,9.83,7.5c3.9,1.84,8.37,2.76,13.41,2.76c5.03,0,9.5-0.92,13.41-2.76    c3.9-1.84,7.18-4.34,9.83-7.5c2.65-3.16,4.66-6.78,6.06-10.86C529.95,194.34,530.65,190.06,530.65,185.59z"/>
		<path class="st2" d="M626.47,162.52c-2.11-3.43-5.08-6.24-8.91-8.41c-3.83-2.18-8.12-3.27-12.87-3.27c-2.11,0-4.23,0.23-6.34,0.69    c-2.11,0.46-3.99,1.19-5.64,2.18c-1.65,0.99-2.97,2.25-3.96,3.76c-0.99,1.52-1.48,3.4-1.48,5.64c0,3.96,1.78,6.9,5.35,8.81    c3.56,1.91,8.91,3.66,16.04,5.25c4.49,1.06,8.64,2.31,12.47,3.76c3.83,1.45,7.16,3.27,10,5.44c2.84,2.18,5.05,4.79,6.63,7.82    c1.58,3.04,2.38,6.6,2.38,10.69c0,5.54-1.06,10.23-3.17,14.06c-2.11,3.83-4.92,6.96-8.41,9.4c-3.5,2.44-7.49,4.19-11.98,5.25    c-4.49,1.06-9.11,1.58-13.86,1.58c-7.13,0-14.09-1.39-20.89-4.16c-6.8-2.77-12.44-6.99-16.93-12.67l13.27-11.29    c2.51,3.7,5.97,6.8,10.39,9.31c4.42,2.51,9.27,3.76,14.55,3.76c2.38,0,4.65-0.23,6.83-0.69c2.18-0.46,4.16-1.22,5.94-2.28    c1.78-1.05,3.2-2.44,4.26-4.16c1.05-1.71,1.58-3.89,1.58-6.53c0-4.35-2.08-7.59-6.24-9.7c-4.16-2.11-10.26-4.09-18.31-5.94    c-3.17-0.79-6.37-1.75-9.6-2.87c-3.24-1.12-6.17-2.67-8.81-4.65c-2.64-1.98-4.79-4.45-6.43-7.42c-1.65-2.97-2.47-6.63-2.47-10.99    c0-5.01,1.02-9.34,3.07-12.97c2.05-3.63,4.72-6.6,8.02-8.91c3.3-2.31,7.06-4.02,11.29-5.15c4.22-1.12,8.58-1.68,13.07-1.68    c6.73,0,13.23,1.32,19.5,3.96c6.27,2.64,11.12,6.47,14.55,11.48L626.47,162.52z"/>
		<path class="st2" d="M714.37,162.52c-2.11-3.43-5.08-6.24-8.91-8.41c-3.83-2.18-8.12-3.27-12.87-3.27c-2.11,0-4.23,0.23-6.34,0.69    c-2.11,0.46-3.99,1.19-5.64,2.18c-1.65,0.99-2.97,2.25-3.96,3.76c-0.99,1.52-1.48,3.4-1.48,5.64c0,3.96,1.78,6.9,5.35,8.81    c3.56,1.91,8.91,3.66,16.04,5.25c4.49,1.06,8.64,2.31,12.47,3.76c3.83,1.45,7.16,3.27,10,5.44c2.84,2.18,5.05,4.79,6.63,7.82    c1.58,3.04,2.38,6.6,2.38,10.69c0,5.54-1.06,10.23-3.17,14.06c-2.11,3.83-4.92,6.96-8.41,9.4c-3.5,2.44-7.49,4.19-11.98,5.25    c-4.49,1.06-9.11,1.58-13.86,1.58c-7.13,0-14.09-1.39-20.89-4.16c-6.8-2.77-12.44-6.99-16.93-12.67l13.27-11.29    c2.51,3.7,5.97,6.8,10.39,9.31c4.42,2.51,9.27,3.76,14.55,3.76c2.38,0,4.65-0.23,6.83-0.69c2.18-0.46,4.16-1.22,5.94-2.28    c1.78-1.05,3.2-2.44,4.26-4.16c1.05-1.71,1.58-3.89,1.58-6.53c0-4.35-2.08-7.59-6.24-9.7c-4.16-2.11-10.26-4.09-18.31-5.94    c-3.17-0.79-6.37-1.75-9.6-2.87c-3.24-1.12-6.17-2.67-8.81-4.65c-2.64-1.98-4.79-4.45-6.43-7.42c-1.65-2.97-2.47-6.63-2.47-10.99    c0-5.01,1.02-9.34,3.07-12.97c2.05-3.63,4.72-6.6,8.02-8.91c3.3-2.31,7.06-4.02,11.28-5.15c4.22-1.12,8.58-1.68,13.07-1.68    c6.73,0,13.23,1.32,19.5,3.96c6.27,2.64,11.12,6.47,14.55,11.48L714.37,162.52z"/>
		<path class="st2" d="M770,217.76v14.85h-18.02V82.93h18.61v69.89h0.59c3.16-4.62,7.57-8.54,13.23-11.78    c5.66-3.23,12.37-4.85,20.14-4.85c6.98,0,13.33,1.26,19.06,3.76c5.73,2.51,10.66,6.01,14.81,10.49c4.15,4.49,7.34,9.74,9.58,15.74    c2.24,6.01,3.36,12.44,3.36,19.3c0,6.86-1.12,13.33-3.36,19.4c-2.24,6.07-5.4,11.35-9.48,15.84c-4.08,4.49-9.02,8.02-14.81,10.59    c-5.79,2.57-12.31,3.86-19.55,3.86c-6.72,0-13.1-1.49-19.16-4.45c-6.06-2.97-10.93-7.29-14.61-12.97H770z M832.37,185.59    c0-4.34-0.66-8.55-1.98-12.63c-1.32-4.08-3.3-7.7-5.94-10.86c-2.64-3.16-5.91-5.66-9.8-7.5c-3.89-1.84-8.41-2.77-13.56-2.77    c-4.75,0-9.08,0.92-12.97,2.77c-3.89,1.84-7.23,4.34-10,7.5c-2.77,3.16-4.92,6.78-6.43,10.86c-1.52,4.08-2.28,8.36-2.28,12.83    c0,4.48,0.76,8.75,2.28,12.83c1.52,4.08,3.66,7.67,6.43,10.76c2.77,3.09,6.1,5.56,10,7.4c3.89,1.84,8.22,2.76,12.97,2.76    c5.15,0,9.67-0.95,13.56-2.86c3.89-1.91,7.16-4.44,9.8-7.6c2.64-3.16,4.62-6.78,5.94-10.86    C831.7,194.14,832.37,189.93,832.37,185.59z"/>
		<path class="st2" d="M877.31,149.26c-0.13-3.96-0.33-7.46-0.59-10.49h17.62c0.26,2.38,0.46,5.12,0.59,8.22    c0.13,3.1,0.2,5.64,0.2,7.62h0.59c2.64-5.54,6.5-10,11.58-13.36c5.08-3.37,10.79-5.05,17.13-5.05c2.9,0,5.35,0.27,7.33,0.79    l-0.79,17.22c-2.64-0.66-5.48-0.99-8.51-0.99c-4.49,0-8.38,0.83-11.68,2.47c-3.3,1.65-6.04,3.86-8.22,6.63    c-2.18,2.77-3.8,5.97-4.85,9.6c-1.06,3.63-1.58,7.42-1.58,11.38v49.3H877.5v-73.65C877.5,156.45,877.44,153.22,877.31,149.26z"/>
		<path class="st2" d="M970.95,104.91c0,3.43-1.21,6.27-3.63,8.51c-2.42,2.25-5.34,3.37-8.74,3.37c-3.4,0-6.28-1.15-8.64-3.46    c-2.36-2.31-3.54-5.11-3.54-8.41c0-3.43,1.18-6.3,3.54-8.61c2.36-2.31,5.24-3.46,8.64-3.46c3.4,0,6.32,1.16,8.74,3.46    C969.74,98.61,970.95,101.48,970.95,104.91z M967.98,232.61h-18.61v-93.84h18.61V232.61z"/>
		<path class="st2" d="M1075.29,217.76c-3.56,5.68-8.41,10-14.55,12.97c-6.14,2.97-12.57,4.45-19.3,4.45    c-7.26,0-13.8-1.29-19.6-3.86c-5.81-2.57-10.76-6.1-14.85-10.59c-4.09-4.49-7.26-9.77-9.5-15.84c-2.25-6.07-3.37-12.54-3.37-19.4    c0-6.86,1.12-13.3,3.37-19.3c2.24-6,5.44-11.25,9.6-15.74c4.16-4.49,9.14-7.98,14.95-10.49c5.81-2.51,12.21-3.76,19.2-3.76    c7.65,0,14.32,1.62,20,4.85c5.67,3.24,10.16,7.16,13.46,11.78h0.4V82.93h18.61v149.68h-18.02v-14.85H1075.29z M1013.52,185.59    c0,4.34,0.66,8.56,1.98,12.63c1.32,4.08,3.3,7.7,5.94,10.86c2.64,3.16,5.87,5.69,9.7,7.6c3.83,1.91,8.32,2.86,13.46,2.86    c4.75,0,9.07-0.92,12.97-2.76c3.89-1.84,7.23-4.31,10-7.4c2.77-3.09,4.92-6.68,6.43-10.76c1.52-4.08,2.28-8.35,2.28-12.83    c0-4.47-0.76-8.75-2.28-12.83c-1.52-4.08-3.66-7.7-6.43-10.86s-6.11-5.66-10-7.5c-3.89-1.84-8.22-2.77-12.97-2.77    c-5.15,0-9.63,0.92-13.46,2.77s-7.06,4.34-9.7,7.5c-2.64,3.16-4.62,6.78-5.94,10.86C1014.18,177.03,1013.52,181.24,1013.52,185.59    z"/>
		<path class="st2" d="M1133.49,248.64c4.09,4.62,9.21,8.32,15.34,11.09c6.14,2.77,12.44,4.16,18.91,4.16    c6.2,0,11.42-0.89,15.64-2.67c4.22-1.78,7.62-4.23,10.2-7.33c2.57-3.1,4.42-6.77,5.54-10.99c1.12-4.22,1.68-8.78,1.68-13.66    v-12.08h-0.4c-3.43,5.28-8.12,9.31-14.06,12.08c-5.94,2.77-12.28,4.16-19.01,4.16c-7.13,0-13.63-1.25-19.5-3.76    c-5.88-2.51-10.86-5.94-14.95-10.29c-4.09-4.36-7.26-9.47-9.5-15.34c-2.25-5.87-3.37-12.18-3.37-18.91s1.12-13.07,3.37-19.01    c2.24-5.94,5.41-11.12,9.5-15.54c4.09-4.42,9.04-7.92,14.85-10.49c5.81-2.57,12.28-3.86,19.4-3.86c6.73,0,13.17,1.45,19.3,4.36    c6.14,2.9,10.99,7.33,14.55,13.26h0.4v-15.05h18.02v89.09c0,6.86-0.86,13.43-2.57,19.7c-1.72,6.27-4.62,11.81-8.71,16.63    c-4.09,4.82-9.44,8.68-16.04,11.58c-6.6,2.9-14.78,4.36-24.55,4.36c-8.18,0-16.4-1.48-24.65-4.45    c-8.25-2.97-15.34-7.16-21.28-12.57L1133.49,248.64z M1139.04,184.69c0,4.36,0.69,8.51,2.08,12.47c1.39,3.96,3.44,7.46,6.16,10.49    c2.71,3.04,5.99,5.48,9.83,7.33c3.84,1.85,8.21,2.77,13.11,2.77c4.77,0,9.14-0.86,13.11-2.57c3.97-1.71,7.35-4.06,10.13-7.03    c2.78-2.97,4.93-6.47,6.45-10.49c1.52-4.02,2.29-8.35,2.29-12.97c0-4.48-0.76-8.71-2.29-12.67c-1.52-3.96-3.71-7.46-6.55-10.49    c-2.85-3.03-6.22-5.44-10.13-7.23c-3.91-1.78-8.24-2.67-13.01-2.67c-4.9,0-9.27,0.89-13.11,2.67c-3.84,1.78-7.12,4.16-9.83,7.13    c-2.72,2.97-4.77,6.47-6.16,10.49C1139.73,175.95,1139.04,180.21,1139.04,184.69z"/>
		<path class="st2" d="M1339,184.89c0,1.06,0,2.11,0,3.17c0,1.06-0.07,2.11-0.2,3.17h-74.64c0.13,3.93,1.02,7.64,2.67,11.11    c1.65,3.47,3.86,6.49,6.63,9.05c2.77,2.56,5.97,4.55,9.6,6c3.63,1.44,7.49,2.16,11.58,2.16c6.34,0,11.81-1.39,16.43-4.16    c4.62-2.77,8.25-6.14,10.89-10.1l13.07,10.49c-5.02,6.65-10.92,11.55-17.72,14.69c-6.8,3.14-14.35,4.71-22.67,4.71    c-7.13,0-13.73-1.19-19.8-3.56c-6.07-2.38-11.29-5.71-15.64-10c-4.36-4.29-7.79-9.47-10.29-15.54c-2.51-6.07-3.76-12.8-3.76-20.19    c0-7.26,1.22-13.96,3.67-20.1c2.45-6.14,5.85-11.38,10.22-15.74c4.36-4.36,9.52-7.75,15.48-10.2c5.95-2.44,12.36-3.66,19.25-3.66    c6.88,0,13.13,1.12,18.75,3.37c5.62,2.25,10.38,5.48,14.29,9.7c3.9,4.23,6.91,9.34,9.03,15.34    C1337.94,170.61,1339,177.37,1339,184.89z M1319.99,177.37c-0.13-3.69-0.76-7.16-1.88-10.39c-1.12-3.23-2.77-6.04-4.95-8.41    c-2.18-2.38-4.88-4.26-8.12-5.64c-3.24-1.39-7.03-2.08-11.38-2.08c-3.96,0-7.69,0.69-11.19,2.08c-3.5,1.39-6.53,3.27-9.11,5.64    s-4.69,5.18-6.34,8.41c-1.65,3.24-2.61,6.7-2.87,10.39H1319.99z"/>
	</g>
</g>
</svg>