<svg xmlns="http://www.w3.org/2000/svg" xmlns:xlink="http://www.w3.org/1999/xlink" width="68" height="22" viewBox="0 0 68 22">
  <defs>
    <clipPath id="clip-Logo-isobar">
      <rect width="68" height="22"/>
    </clipPath>
  </defs>
  <g id="Logo-isobar" clip-path="url(#clip-Logo-isobar)">
    <g id="Grupo_4" data-name="Grupo 4" transform="translate(-99.15 -922.908)">
      <path id="Unión_1" data-name="Unión 1" d="M4.562,17.6c-.02-.019-.031-.034-.048-.047L6.446,15.59a6.938,6.938,0,0,0,4.5,1.405c2.127,0,3.091-.635,3.091-1.57,0-.99-.938-1.422-3.521-1.649-3.4-.3-5.647-1.271-5.647-4.154,0-2.482,2.406-4.1,5.722-4.1a9.221,9.221,0,0,1,5.925,2.1.386.386,0,0,1,.054.052L14.692,9.594a6.868,6.868,0,0,0-4.258-1.339c-1.721,0-2.655.508-2.655,1.268,0,.811.759,1.215,3.063,1.44,3.546.357,6.1,1.5,6.1,4.409,0,2.763-2.583,4.357-6.051,4.357A9.3,9.3,0,0,1,4.562,17.6Zm35.3,2.115A5.155,5.155,0,0,1,36,18.277l-.073,1.164H32.935V3.23L36.175,0l-.009,6.945.008-.017a5.476,5.476,0,0,1,3.764-1.409l.031,0c3.585,0,6.614,3.252,6.614,7.1a7.147,7.147,0,0,1-2.08,5.01,6.55,6.55,0,0,1-4.568,2.087Zm-3.657-9.372-.034.047v4.45l.034.051a3.984,3.984,0,1,0,0-4.549ZM17.632,12.617a7.1,7.1,0,1,1,7.1,7.1A7.1,7.1,0,0,1,17.632,12.617Zm3.221,0a3.987,3.987,0,1,0,3.983-3.984A3.989,3.989,0,0,0,20.853,12.612Zm26.259,2.76c0-2.82,2.194-4.312,6.352-4.312h2.99v-.517a2.643,2.643,0,0,0-2.89-2.411A4.317,4.317,0,0,0,50.5,9.172L48.75,7.42a5,5,0,0,1,.672-.595A7.074,7.074,0,0,1,53.7,5.519c3.594,0,5.911,1.975,5.911,5.024v8.9H56.515l-.007-1.311-.311.312c-1.081,1.086-2.325,1.169-4.1,1.169C49.163,19.616,47.111,17.873,47.111,15.373Zm3.323-.089c0,1.088.936,1.792,2.382,1.792,2.209,0,3.638-1.161,3.638-2.95v-.732H53.541C51.482,13.394,50.434,14.033,50.434,15.284ZM.2,19.444V5.757H3.378V19.444Zm61.235-.014V5.741l3.123.02V7.167l-.013.4c.171-.719,1.326-1.946,3.455-2.1v3.29c-1.558.1-3.264.556-3.32,2.917h-.005V19.43ZM0,2.16A1.772,1.772,0,1,1,1.773,3.933,1.774,1.774,0,0,1,0,2.16Z" transform="translate(99.15 924.179)" fill="#f54902"/>
    </g>
  </g>
</svg>