<svg id="Capa_1" xmlns="http://www.w3.org/2000/svg" x="0" y="0" viewBox="0 0 202.74 64.94" xml:space="preserve">
  <style>.st0{fill:#182134}</style>
  <path class="st0" d="M139.19 34.79c0-8.95-6.39-15.33-15.39-15.33-9.01 0-15.51 6.38-15.51 15.27 0 9.3 6.5 15.97 15.56 15.97 6.43 0 12.25-3.88 14.1-9.32-1.29-.59-2.76-.91-4.33-.91-.53 0-1.04.04-1.54.11-1.13 2.57-3.92 4.45-7.08 4.85-.41.05-.84.08-1.26.08-4.73 0-8.32-3.42-9.06-8.55l24.39.05c.06-.68.12-1.53.12-2.22zm-24.46-2.39c.8-4.62 4.22-7.76 8.9-7.76 4.78 0 8.43 3.2 9.12 7.76h-18.02zM81.78 20.66h-1.83c-.75.06-1.48.2-2.16.4v2.1c-.61-.47-1.26-.9-1.95-1.27-2.21-1.21-4.81-1.87-7.64-1.87-8.75 0-15.07 6.42-15.07 15.12s6.32 15.12 15.07 15.12c3.73 0 7.03-1.16 9.59-3.17v2.53h6.22V21.08c-.7-.22-1.45-.36-2.23-.42zM68.22 44.95c-5.68 0-9.78-4.16-9.78-9.8 0-5.64 4.1-9.81 9.78-9.81 5.62 0 9.83 4.05 9.83 9.81 0 5.64-4.16 9.8-9.83 9.8zM52.45 20.87c0-.01 0-.02-.01-.04-.43-.13-.88-.23-1.34-.29l-1.74-.11c-.95.01-1.85.14-2.7.39-.2.05-.4.11-.59.19-2.09.7-3.79 2.09-4.89 3.93-.86 1.41-1.35 3.09-1.41 4.94-.01-.21-.04-.41-.04-.62 0-1.99.51-3.8 1.43-5.3v-3.02c-.92-.26-1.9-.39-2.92-.39-1.09 0-2.12.15-3.07.44v28.52h6.21V35.87c.01.01.01.02.02.03.01-.95.13-1.87.37-2.72 1.11-4.1 4.65-6.91 9.24-6.98h.17c.41 0 .81.02 1.2.07v-.03c.24-.88.37-1.82.37-2.8 0-.9-.1-1.76-.3-2.57zM98.27 20.91v-6.7a11.175 11.175 0 0 0-5.1-.03l-.77 6.73h-4.79v4.85h4.45v15.96c0 5.53 3.36 9.29 8.55 9.29 1.6 0 3.65-.29 5.13-.8v-4.96c-1.08.34-2.45.52-3.25.52-2.62 0-4.22-1.83-4.22-4.45V25.76h7.04v-4.85h-7.04v-6.7 6.7zM171.39 40.13c-1.4 5.92-7.13 10.22-13.86 10.4-.15.01-.3.01-.45.01-8.89 0-15.33-6.56-15.33-15.62 0-9.07 6.44-15.62 15.28-15.62.17 0 .33 0 .5.01 6.9.19 12.55 4.48 13.81 10.42-1.88.73-4.01.93-6.03.59-1.06-3.09-3.94-5.31-7.28-5.66-.31-.04-.63-.06-.95-.06-5.13 0-9.18 4.33-9.18 10.32.06 5.98 3.99 10.32 9.18 10.32.33 0 .65-.02.97-.06 3.42-.35 6.18-2.58 7.31-5.65 2.02-.34 4.15-.14 6.03.6zM16.62 19.57c-4.24 0-7.9 1.52-10.56 4.06l-.01-3.02c-.93-.26-1.93-.4-2.97-.4-1.09 0-2.12.15-3.08.44v44.29h6.22l-.07-19.1c2.65 2.49 6.27 3.98 10.47 3.98 8.76 0 15.16-6.42 15.16-15.12 0-8.88-6.49-15.13-15.16-15.13zM191 19.46c-.93 0-1.87.11-2.78.33-2.63.63-5.02 2.12-6.46 4.28V8.04c-.97-.3-2.02-.45-3.12-.45s-2.13.15-3.09.45v41.52h6.21V32.91c0-4.62 3.6-7.92 7.93-7.92s6.9 3.07 6.9 7.35v17.22h6.15V31.83c0-7.19-4.56-12.37-11.74-12.37z">
  </path>
  <circle cx="16.25" cy="5.77" r="5.77" style="fill: rgb(255, 41, 48);"></circle>
</svg>