<svg xmlns="http://www.w3.org/2000/svg" width="249.694" height="62.643" viewBox="0 0 249.694 62.643">
  <g id="Grupo_319" data-name="Grupo 319" transform="translate(0 0)">
    <g id="Grupo_5" data-name="Grupo 5">
      <g id="Grupo_1" data-name="Grupo 1" transform="translate(7.978)">
        <path id="Trazado_1" data-name="Trazado 1" d="M124.35,98.7l12.02,12.014,3.174-3.143-15.327-15.42-15.06,15.025,3.178,3.23Z" transform="translate(-109.157 -92.156)" fill="#fff"/>
      </g>
      <g id="Grupo_2" data-name="Grupo 2" transform="translate(13.482 11.054)">
        <path id="Trazado_2" data-name="Trazado 2" d="M119.242,121.977l3.2,3.256,6.486-6.412,6.47,6.6,3.242-3.212-9.712-9.795Z" transform="translate(-119.242 -112.411)" fill="#fff"/>
      </g>
      <g id="Grupo_3" data-name="Grupo 3" transform="translate(18.851 21.597)">
        <path id="Trazado_3" data-name="Trazado 3" d="M133.412,131.73l-4.332,4.479L133.4,140.6l4.2-4.164Z" transform="translate(-129.08 -131.73)" fill="#fff"/>
      </g>
      <g id="Grupo_4" data-name="Grupo 4" transform="translate(0 17.254)">
        <path id="Trazado_4" data-name="Trazado 4" d="M94.719,136.031a3.051,3.051,0,0,0-.111.63,17.351,17.351,0,0,0,.174,4.947,24.282,24.282,0,0,0,6.4,13.051c5.55,5.55,14.537,14.5,14.537,14.5V139.483l-15.641-15.71A24.1,24.1,0,0,0,94.719,136.031Zm16.33,5.443v16.332l-8.534-8.5h0c-5.885-7.882-1.707-18.089-1.707-18.089C101.554,132.034,106.96,137.414,111.05,141.474Z" transform="translate(-94.537 -123.773)" fill="#fff"/>
      </g>
    </g>
    <g id="Grupo_6" data-name="Grupo 6" transform="translate(25.185 17.254)">
      <path id="Trazado_5" data-name="Trazado 5" d="M160.508,130.914l-11.913,11.843-3.17,3v-4.4l13.655-13.655a19,19,0,0,0-2.717-3.936l-15.676,15.71v18l4.737-4.313,3.17-3.026,8.255-8.116s-1.149,5.365-3.553,7.838-7.873,8.011-7.873,8.011l-4.737,4.394v6.893l14.41-14.479A24.121,24.121,0,0,0,160.508,130.914Z" transform="translate(-140.687 -123.773)" fill="#fff"/>
    </g>
    <g id="Grupo_7" data-name="Grupo 7" transform="translate(62.766 19.866)">
      <path id="Trazado_6" data-name="Trazado 6" d="M209.55,129.017h7.3q4.875,0,7.562,2.591a9.661,9.661,0,0,1,2.688,7.3q0,4.736-2.688,7.34t-7.562,2.6h-7.3Zm7.075,16.908q6.852,0,6.852-7.02,0-6.963-6.852-6.963h-3.482v13.983Z" transform="translate(-209.55 -128.767)" fill="#fff"/>
      <path id="Trazado_7" data-name="Trazado 7" d="M252.525,129.017h13.259v2.841h-9.749v5.488H265.2v2.841h-9.164v5.821h9.749v2.841H252.525Z" transform="translate(-229.072 -128.767)" fill="#fff"/>
      <path id="Trazado_8" data-name="Trazado 8" d="M303.17,129.017l-8.829,19.832h-2.925l-8.83-19.832h3.733l6.6,15.32,6.6-15.32Z" transform="translate(-242.728 -128.767)" fill="#fff"/>
      <path id="Trazado_9" data-name="Trazado 9" d="M328.793,148.279a9.81,9.81,0,0,1-3.384-1.755l1.226-2.618a10.44,10.44,0,0,0,3.022,1.6,10.988,10.988,0,0,0,3.44.515,5.892,5.892,0,0,0,3.189-.724,2.286,2.286,0,0,0,1.128-2.033,1.879,1.879,0,0,0-1.044-1.713,13.107,13.107,0,0,0-3.44-1.129,14.267,14.267,0,0,1-5.432-2.089,4.385,4.385,0,0,1-1.7-3.732,5.337,5.337,0,0,1,.947-3.119,6.318,6.318,0,0,1,2.688-2.145,9.766,9.766,0,0,1,4.025-.78,12.466,12.466,0,0,1,3.969.627,8.3,8.3,0,0,1,3.078,1.741l-1.2,2.618a9.149,9.149,0,0,0-5.849-2.117,5.144,5.144,0,0,0-3.036.794,2.514,2.514,0,0,0-1.114,2.158,1.971,1.971,0,0,0,.989,1.783,11.7,11.7,0,0,0,3.384,1.142,24.155,24.155,0,0,1,4.039,1.267,6.014,6.014,0,0,1,2.4,1.755,4.24,4.24,0,0,1,.836,2.688A5.194,5.194,0,0,1,340,146.12a6.049,6.049,0,0,1-2.73,2.047,11.136,11.136,0,0,1-4.206.724A14.481,14.481,0,0,1,328.793,148.279Z" transform="translate(-262.181 -128.558)" fill="#fff"/>
      <path id="Trazado_10" data-name="Trazado 10" d="M375.13,144.2h-9.693l-2.005,4.651H359.81l8.969-19.832H371.7l9,19.832h-3.594Zm-1.2-2.786-3.648-8.495-3.649,8.495Z" transform="translate(-277.808 -128.767)" fill="#fff"/>
      <path id="Trazado_11" data-name="Trazado 11" d="M418.828,129.017,410,148.849h-2.925l-8.829-19.832h3.732l6.6,15.32,6.6-15.32Z" transform="translate(-295.268 -128.767)" fill="#fff"/>
      <path id="Trazado_12" data-name="Trazado 12" d="M451.435,144.2h-9.694l-2.006,4.651h-3.621l8.969-19.832h2.925l9,19.832h-3.594Zm-1.2-2.786-3.648-8.495-3.649,8.495Z" transform="translate(-312.471 -128.767)" fill="#fff"/>
      <path id="Trazado_13" data-name="Trazado 13" d="M499.119,129.017v19.832h-2.674l-10.7-13.9v13.9h-3.343V129.017h2.675l10.668,13.871V129.017Z" transform="translate(-333.5 -128.767)" fill="#fff"/>
      <path id="Trazado_14" data-name="Trazado 14" d="M528.171,131.97h-6.463v-2.953h16.573v2.953h-6.49v16.879h-3.621Z" transform="translate(-351.354 -128.767)" fill="#fff"/>
    </g>
  </g>
</svg>